<mxfile host="app.diagrams.net" modified="2023-08-02T14:09:11.196Z" agent="Mozilla/5.0 (Macintosh; Intel Mac OS X 10_15_7) AppleWebKit/605.1.15 (KHTML, like Gecko) Version/16.5.2 Safari/605.1.15" etag="N_vepwi3iP97s89AugpB" version="21.6.6" type="github">
  <diagram id="prtHgNgQTEPvFCAcTncT" name="Page-1">
    <mxGraphModel dx="1373" dy="1037" grid="1" gridSize="10" guides="1" tooltips="1" connect="1" arrows="1" fold="1" page="1" pageScale="1" pageWidth="1920" pageHeight="1200" math="0" shadow="0">
      <root>
        <mxCell id="0" />
        <mxCell id="1" parent="0" />
        <mxCell id="9__OlZeBsE-3ir7IYc4N-11" value="" style="edgeStyle=orthogonalEdgeStyle;rounded=0;orthogonalLoop=1;jettySize=auto;html=1;" edge="1" parent="1" source="9__OlZeBsE-3ir7IYc4N-2" target="9__OlZeBsE-3ir7IYc4N-10">
          <mxGeometry relative="1" as="geometry" />
        </mxCell>
        <mxCell id="9__OlZeBsE-3ir7IYc4N-27" value="" style="edgeStyle=orthogonalEdgeStyle;rounded=0;orthogonalLoop=1;jettySize=auto;html=1;" edge="1" parent="1">
          <mxGeometry relative="1" as="geometry">
            <mxPoint x="460" y="295" as="sourcePoint" />
            <mxPoint x="805" y="419.75" as="targetPoint" />
            <Array as="points">
              <mxPoint x="460" y="370" />
              <mxPoint x="805" y="370" />
            </Array>
          </mxGeometry>
        </mxCell>
        <mxCell id="9__OlZeBsE-3ir7IYc4N-2" value="機器學習" style="swimlane;whiteSpace=wrap;html=1;fillColor=#e6d0de;strokeColor=#996185;gradientColor=#d5739d;fontFamily=Times New Roman;strokeWidth=2;rounded=1;glass=0;shadow=0;" vertex="1" parent="1">
          <mxGeometry x="320" y="40" width="280" height="265" as="geometry" />
        </mxCell>
        <mxCell id="9__OlZeBsE-3ir7IYc4N-18" value="" style="edgeStyle=orthogonalEdgeStyle;rounded=0;orthogonalLoop=1;jettySize=auto;html=1;" edge="1" parent="1" source="9__OlZeBsE-3ir7IYc4N-4" target="9__OlZeBsE-3ir7IYc4N-17">
          <mxGeometry relative="1" as="geometry" />
        </mxCell>
        <mxCell id="9__OlZeBsE-3ir7IYc4N-4" value="Actor" style="shape=umlActor;verticalLabelPosition=bottom;verticalAlign=top;html=1;outlineConnect=0;" vertex="1" parent="1">
          <mxGeometry x="360" y="540" width="80" height="149.5" as="geometry" />
        </mxCell>
        <mxCell id="9__OlZeBsE-3ir7IYc4N-14" value="" style="edgeStyle=orthogonalEdgeStyle;rounded=0;orthogonalLoop=1;jettySize=auto;html=1;" edge="1" parent="1" source="9__OlZeBsE-3ir7IYc4N-7" target="9__OlZeBsE-3ir7IYc4N-13">
          <mxGeometry relative="1" as="geometry" />
        </mxCell>
        <mxCell id="9__OlZeBsE-3ir7IYc4N-7" value="機器學習" style="swimlane;whiteSpace=wrap;html=1;fillColor=#e6d0de;strokeColor=#996185;gradientColor=#d5739d;fontFamily=Times New Roman;strokeWidth=2;rounded=1;glass=0;shadow=0;" vertex="1" parent="1">
          <mxGeometry x="650" y="40" width="280" height="265" as="geometry" />
        </mxCell>
        <mxCell id="9__OlZeBsE-3ir7IYc4N-8" value="機器學習" style="swimlane;whiteSpace=wrap;html=1;fillColor=#e6d0de;strokeColor=#996185;gradientColor=#d5739d;fontFamily=Times New Roman;strokeWidth=2;rounded=1;glass=0;shadow=0;" vertex="1" parent="1">
          <mxGeometry x="980" y="40" width="280" height="265" as="geometry" />
        </mxCell>
        <mxCell id="9__OlZeBsE-3ir7IYc4N-10" value="" style="shape=waypoint;sketch=0;size=6;pointerEvents=1;points=[];fillColor=#e6d0de;resizable=0;rotatable=0;perimeter=centerPerimeter;snapToPoint=1;fontFamily=Times New Roman;strokeColor=#996185;fontStyle=1;startSize=23;gradientColor=#d5739d;strokeWidth=2;rounded=1;glass=0;shadow=0;" vertex="1" parent="1">
          <mxGeometry x="630" y="260" width="20" height="20" as="geometry" />
        </mxCell>
        <mxCell id="9__OlZeBsE-3ir7IYc4N-13" value="" style="shape=waypoint;sketch=0;size=6;pointerEvents=1;points=[];fillColor=#e6d0de;resizable=0;rotatable=0;perimeter=centerPerimeter;snapToPoint=1;fontFamily=Times New Roman;strokeColor=#996185;fontStyle=1;startSize=23;gradientColor=#d5739d;strokeWidth=2;rounded=1;glass=0;shadow=0;" vertex="1" parent="1">
          <mxGeometry x="960" y="270" width="20" height="20" as="geometry" />
        </mxCell>
        <mxCell id="9__OlZeBsE-3ir7IYc4N-22" value="" style="edgeStyle=orthogonalEdgeStyle;rounded=0;orthogonalLoop=1;jettySize=auto;html=1;entryX=0.5;entryY=1;entryDx=0;entryDy=0;" edge="1" parent="1" source="9__OlZeBsE-3ir7IYc4N-15" target="9__OlZeBsE-3ir7IYc4N-8">
          <mxGeometry relative="1" as="geometry">
            <mxPoint x="910" y="350" as="targetPoint" />
          </mxGeometry>
        </mxCell>
        <mxCell id="9__OlZeBsE-3ir7IYc4N-15" value="&lt;font style=&quot;font-size: 30px;&quot;&gt;System&lt;/font&gt;" style="ellipse;whiteSpace=wrap;html=1;aspect=fixed;fontFamily=Helvetica;" vertex="1" parent="1">
          <mxGeometry x="630" y="439.75" width="350" height="350" as="geometry" />
        </mxCell>
        <mxCell id="9__OlZeBsE-3ir7IYc4N-17" value="" style="shape=waypoint;sketch=0;size=6;pointerEvents=1;points=[];fillColor=default;resizable=0;rotatable=0;perimeter=centerPerimeter;snapToPoint=1;verticalAlign=top;" vertex="1" parent="1">
          <mxGeometry x="610" y="604.75" width="20" height="20" as="geometry" />
        </mxCell>
        <mxCell id="9__OlZeBsE-3ir7IYc4N-23" value="" style="edgeStyle=orthogonalEdgeStyle;rounded=0;orthogonalLoop=1;jettySize=auto;html=1;" edge="1" parent="1" source="9__OlZeBsE-3ir7IYc4N-26" target="9__OlZeBsE-3ir7IYc4N-15">
          <mxGeometry relative="1" as="geometry">
            <Array as="points">
              <mxPoint x="805" y="390" />
              <mxPoint x="805" y="390" />
            </Array>
          </mxGeometry>
        </mxCell>
        <mxCell id="9__OlZeBsE-3ir7IYc4N-19" value="" style="shape=waypoint;sketch=0;size=6;pointerEvents=1;points=[];fillColor=default;resizable=0;rotatable=0;perimeter=centerPerimeter;snapToPoint=1;" vertex="1" parent="1">
          <mxGeometry x="795" y="305" width="20" height="20" as="geometry" />
        </mxCell>
        <mxCell id="9__OlZeBsE-3ir7IYc4N-28" value="" style="edgeStyle=orthogonalEdgeStyle;rounded=0;orthogonalLoop=1;jettySize=auto;html=1;" edge="1" parent="1" source="9__OlZeBsE-3ir7IYc4N-19" target="9__OlZeBsE-3ir7IYc4N-26">
          <mxGeometry relative="1" as="geometry">
            <mxPoint x="805" y="315" as="sourcePoint" />
            <mxPoint x="805" y="440" as="targetPoint" />
            <Array as="points" />
          </mxGeometry>
        </mxCell>
        <mxCell id="9__OlZeBsE-3ir7IYc4N-26" value="" style="shape=waypoint;sketch=0;size=6;pointerEvents=1;points=[];fillColor=#e6d0de;resizable=0;rotatable=0;perimeter=centerPerimeter;snapToPoint=1;fontFamily=Times New Roman;strokeColor=#996185;fontStyle=1;startSize=23;gradientColor=#d5739d;strokeWidth=2;rounded=1;glass=0;shadow=0;" vertex="1" parent="1">
          <mxGeometry x="795" y="419.75" width="20" height="20" as="geometry" />
        </mxCell>
      </root>
    </mxGraphModel>
  </diagram>
</mxfile>
